%TF.GenerationSoftware,KiCad,Pcbnew,8.0.3*%
%TF.CreationDate,2024-07-17T15:49:10+08:00*%
%TF.ProjectId,STM32G431C8T6,53544d33-3247-4343-9331-433854362e6b,rev?*%
%TF.SameCoordinates,PXb5c5340PY81b3200*%
%TF.FileFunction,Soldermask,Bot*%
%TF.FilePolarity,Negative*%
%FSLAX45Y45*%
G04 Gerber Fmt 4.5, Leading zero omitted, Abs format (unit mm)*
G04 Created by KiCad (PCBNEW 8.0.3) date 2024-07-17 15:49:10*
%MOMM*%
%LPD*%
G01*
G04 APERTURE LIST*
G04 Aperture macros list*
%AMRoundRect*
0 Rectangle with rounded corners*
0 $1 Rounding radius*
0 $2 $3 $4 $5 $6 $7 $8 $9 X,Y pos of 4 corners*
0 Add a 4 corners polygon primitive as box body*
4,1,4,$2,$3,$4,$5,$6,$7,$8,$9,$2,$3,0*
0 Add four circle primitives for the rounded corners*
1,1,$1+$1,$2,$3*
1,1,$1+$1,$4,$5*
1,1,$1+$1,$6,$7*
1,1,$1+$1,$8,$9*
0 Add four rect primitives between the rounded corners*
20,1,$1+$1,$2,$3,$4,$5,0*
20,1,$1+$1,$4,$5,$6,$7,0*
20,1,$1+$1,$6,$7,$8,$9,0*
20,1,$1+$1,$8,$9,$2,$3,0*%
G04 Aperture macros list end*
%ADD10C,0.650000*%
%ADD11O,1.000000X2.100000*%
%ADD12O,1.000000X1.800000*%
%ADD13C,6.400000*%
%ADD14R,1.700000X1.700000*%
%ADD15O,1.700000X1.700000*%
%ADD16RoundRect,0.250000X0.385000X1.350000X-0.385000X1.350000X-0.385000X-1.350000X0.385000X-1.350000X0*%
%ADD17RoundRect,0.250000X0.425000X1.600000X-0.425000X1.600000X-0.425000X-1.600000X0.425000X-1.600000X0*%
%ADD18RoundRect,0.250000X1.350000X-0.385000X1.350000X0.385000X-1.350000X0.385000X-1.350000X-0.385000X0*%
%ADD19RoundRect,0.250000X1.600000X-0.425000X1.600000X0.425000X-1.600000X0.425000X-1.600000X-0.425000X0*%
%ADD20RoundRect,0.250000X-1.350000X0.385000X-1.350000X-0.385000X1.350000X-0.385000X1.350000X0.385000X0*%
%ADD21RoundRect,0.250000X-1.600000X0.425000X-1.600000X-0.425000X1.600000X-0.425000X1.600000X0.425000X0*%
G04 APERTURE END LIST*
D10*
%TO.C,J1*%
X1959000Y7167500D03*
X1381000Y7167500D03*
D11*
X2102000Y7117500D03*
D12*
X2102000Y7535500D03*
D11*
X1238000Y7117500D03*
D12*
X1238000Y7535500D03*
%TD*%
D13*
%TO.C,*%
X370000Y7530000D03*
%TD*%
D14*
%TO.C,J8*%
X1378000Y730000D03*
D15*
X1632000Y730000D03*
X1886000Y730000D03*
X2140000Y730000D03*
%TD*%
D13*
%TO.C,*%
X3130000Y7530000D03*
%TD*%
D14*
%TO.C,J10*%
X3046000Y4684000D03*
D15*
X3300000Y4684000D03*
X3046000Y4430000D03*
X3300000Y4430000D03*
X3046000Y4176000D03*
X3300000Y4176000D03*
X3046000Y3922000D03*
X3300000Y3922000D03*
X3046000Y3668000D03*
X3300000Y3668000D03*
X3046000Y3414000D03*
X3300000Y3414000D03*
X3046000Y3160000D03*
X3300000Y3160000D03*
X3046000Y2906000D03*
X3300000Y2906000D03*
X3046000Y2652000D03*
X3300000Y2652000D03*
X3046000Y2398000D03*
X3300000Y2398000D03*
X3046000Y2144000D03*
X3300000Y2144000D03*
X3046000Y1890000D03*
X3300000Y1890000D03*
%TD*%
D13*
%TO.C,*%
X3130000Y370000D03*
%TD*%
%TO.C,*%
X370000Y370000D03*
%TD*%
D14*
%TO.C,J2*%
X2510000Y4864000D03*
D15*
X2510000Y4610000D03*
X2256000Y4864000D03*
X2256000Y4610000D03*
X2002000Y4864000D03*
X2002000Y4610000D03*
X1748000Y4864000D03*
X1748000Y4610000D03*
X1494000Y4864000D03*
X1494000Y4610000D03*
X1240000Y4864000D03*
X1240000Y4610000D03*
X986000Y4864000D03*
X986000Y4610000D03*
%TD*%
D14*
%TO.C,J3*%
X2520000Y6796000D03*
D15*
X2520000Y6542000D03*
X2520000Y6288000D03*
X2520000Y6034000D03*
X2520000Y5780000D03*
%TD*%
D14*
%TO.C,J9*%
X226000Y4680000D03*
D15*
X480000Y4680000D03*
X226000Y4426000D03*
X480000Y4426000D03*
X226000Y4172000D03*
X480000Y4172000D03*
X226000Y3918000D03*
X480000Y3918000D03*
X226000Y3664000D03*
X480000Y3664000D03*
X226000Y3410000D03*
X480000Y3410000D03*
X226000Y3156000D03*
X480000Y3156000D03*
X226000Y2902000D03*
X480000Y2902000D03*
X226000Y2648000D03*
X480000Y2648000D03*
X226000Y2394000D03*
X480000Y2394000D03*
X226000Y2140000D03*
X480000Y2140000D03*
X226000Y1886000D03*
X480000Y1886000D03*
%TD*%
D16*
%TO.C,J5*%
X2370000Y256250D03*
D17*
X2652500Y281250D03*
X2087500Y281250D03*
%TD*%
D18*
%TO.C,J6*%
X255000Y1142500D03*
D19*
X280000Y860000D03*
X280000Y1425000D03*
%TD*%
D20*
%TO.C,J4*%
X3263750Y1130000D03*
D21*
X3238750Y1412500D03*
X3238750Y847500D03*
%TD*%
D16*
%TO.C,J7*%
X1140000Y256250D03*
D17*
X1422500Y281250D03*
X857500Y281250D03*
%TD*%
M02*
