M48
; DRILL file {KiCad 8.0.3} date 2024-07-17T15:49:21+0800
; FORMAT={-:-/ absolute / metric / decimal}
; #@! TF.CreationDate,2024-07-17T15:49:21+08:00
; #@! TF.GenerationSoftware,Kicad,Pcbnew,8.0.3
; #@! TF.FileFunction,Plated,1,2,PTH
FMAT,2
METRIC
; #@! TA.AperFunction,Plated,PTH,ViaDrill
T1C0.300
; #@! TA.AperFunction,Plated,PTH,ComponentDrill
T2C0.600
; #@! TA.AperFunction,Plated,PTH,ComponentDrill
T3C1.000
; #@! TA.AperFunction,Plated,PTH,ComponentDrill
T4C3.200
%
G90
G05
T1
X1.2Y63.9
X1.3Y56.1
X1.3Y53.3
X1.3Y52.4
X1.3Y50.4
X1.4Y59.6
X1.4Y57.8
X1.5Y61.3
X1.5Y22.7
X1.6Y70.3
X1.7Y68.0
X1.7Y65.9
X1.7Y49.4
X1.8Y62.6
X1.9Y51.6
X2.0Y16.5
X2.5Y50.8
X2.6Y71.1
X2.6Y52.9
X2.7Y54.5
X2.8Y16.9
X3.0Y25.2
X3.1Y20.1
X3.6Y30.3
X3.6Y22.0
X3.7Y51.7
X3.8Y49.3
X4.1Y25.2
X4.1Y20.1
X4.2Y65.5
X4.2Y15.6
X4.3Y67.7
X4.5Y12.8
X4.6Y66.4
X4.6Y10.8
X5.0Y62.3
X5.0Y11.6
X5.5Y17.0
X5.5Y9.3
X5.8Y50.4
X5.9Y8.1
X6.0Y27.3
X6.0Y14.3
X6.1Y11.6
X6.1Y9.8
X6.3Y32.9
X6.6Y28.1
X6.7Y23.6
X6.7Y23.0
X6.9Y55.3
X7.014Y11.214
X7.1Y12.9
X7.2Y68.9
X7.3Y39.4
X7.3Y37.5
X7.3Y36.0
X7.376Y22.276
X7.5Y61.2
X7.6Y14.3
X7.704Y25.063
X7.8Y22.7
X7.9Y10.2
X8.2Y25.4
X8.4Y13.7
X8.582Y15.018
X8.6Y18.8
X8.6Y16.9
X8.7Y24.4
X8.7Y23.6
X8.7Y6.1
X8.836Y21.914
X8.85Y20.215
X8.9Y26.1
X9.0Y10.7
X9.3Y61.0
X9.3Y29.6
X9.3Y14.9
X9.7Y30.6
X9.7Y11.2
X9.9Y39.6
X9.965Y9.735
X10.1Y30.1
X10.1Y6.075
X10.4Y18.7
X10.5Y19.4
X10.5Y10.2
X10.6Y30.5
X10.6Y20.2
X10.616Y31.69
X10.7Y63.7
X10.7Y20.9
X10.7Y14.2
X10.7Y12.1
X10.8Y6.6
X11.0Y22.9
X11.2Y31.1
X11.2Y12.7
X11.3Y14.3
X11.4Y67.5
X11.6Y29.0
X11.681Y24.619
X11.9Y27.1
X12.0Y40.5
X12.0Y34.6
X12.0Y34.0
X12.0Y27.9
X12.0Y13.6
X12.0Y9.5
X12.0Y6.9
X12.0Y5.6
X12.1Y14.8
X12.5Y35.1
X12.6Y32.0
X12.751Y9.449
X12.8Y66.2
X12.9Y29.3
X13.2Y50.5
X13.2Y28.7
X13.3Y23.4
X13.301Y10.777
X13.4Y64.6
X13.6Y46.79
X13.6Y12.45
X13.6Y11.3
X13.9Y26.5
X14.0Y24.307
X14.0Y18.4
X14.097Y17.517
X14.1Y13.7
X14.269Y20.681
X14.3Y68.9
X14.3Y35.4
X14.383Y32.141
X14.5Y36.0
X14.501Y25.6
X14.7Y19.6
X14.761Y44.761
X14.775Y17.8
X14.8Y67.7
X14.8Y28.8
X14.8Y28.1
X14.9Y32.5
X14.966Y18.625
X15.0Y58.85
X15.005Y9.905
X15.5Y52.4
X15.629Y24.871
X15.8Y13.9
X15.8Y12.9
X15.9Y16.2
X15.975Y16.845
X16.1Y32.0
X16.1Y29.2
X16.2Y63.7
X16.2Y28.6
X16.258Y62.27
X16.5Y3.0
X16.64Y61.625
X16.7Y10.4
X16.8Y32.0
X16.8Y26.2
X17.0Y23.6
X17.2Y20.2
X17.31Y61.187
X17.5Y16.8
X17.6Y26.6
X17.6Y18.675
X17.8Y58.4
X17.8Y11.9
X17.8Y9.7
X17.9Y15.0
X18.0Y15.7
X18.2Y5.2
X18.3Y16.8
X18.39Y60.107
X18.4Y31.55
X18.5Y67.9
X18.8Y22.0
X18.8Y1.8
X18.9Y21.2
X19.0Y10.6
X19.1Y68.9
X19.2Y35.8
X19.25Y16.3
X19.5Y20.2
X19.6Y67.9
X19.6Y21.2
X19.65Y29.5
X19.8Y58.4
X19.9Y54.6
X19.9Y16.7
X20.3Y35.2
X20.3Y30.5
X20.324Y62.25
X20.7Y34.1
X20.8Y9.2
X20.9Y56.8
X20.9Y55.7
X21.0Y12.8
X21.1Y29.4
X21.2Y28.6
X21.3Y65.4
X21.3Y27.7
X21.3Y18.5
X21.5Y17.3
X21.7Y55.6
X21.7Y28.2
X21.7Y27.1
X22.0Y43.8
X22.225Y22.5
X22.225Y21.0
X22.3Y57.0
X22.3Y56.1
X22.3Y34.8
X22.6Y10.6
X22.8Y64.3
X22.8Y21.418
X22.882Y25.018
X22.9Y55.6
X23.0Y32.1
X23.081Y16.319
X23.1Y62.2
X23.15Y61.0
X23.2Y59.7
X23.3Y17.3
X23.4Y51.0
X23.4Y21.418
X23.78Y64.92
X23.8Y69.8
X24.3Y21.9
X24.3Y21.1
X24.35Y9.943
X24.399Y32.824
X24.4Y53.5
X24.4Y50.9
X24.6Y18.6
X24.9Y11.9
X25.0Y21.1
X25.0Y15.2
X25.2Y8.4
X25.3Y18.6
X25.3Y7.0
X25.4Y73.4
X25.4Y69.8
X25.4Y32.2
X25.6Y6.4
X25.7Y53.5
X25.7Y50.1
X25.8Y51.2
X25.8Y18.0
X25.9Y21.9
X26.2Y45.1
X26.2Y14.7
X26.4Y51.8
X26.4Y50.5
X26.4Y35.0
X26.5Y49.7
X26.6Y61.9
X26.6Y51.2
X26.7Y32.2
X26.8Y46.4
X26.8Y19.2
X27.0Y45.7
X27.1Y16.6
X27.1Y10.3
X27.4Y47.8
X27.5Y29.0
X27.6Y13.1
X28.0Y36.1
X28.1Y24.6
X28.15Y20.592
X28.3Y37.4
X28.3Y7.6
X28.4Y11.6
X28.7Y62.3
X28.7Y45.1
X28.75Y32.55
X28.8Y29.7
X29.1Y33.3
X29.2Y68.7
X29.3Y30.424
X29.3Y28.0
X29.7Y25.102
X30.0Y53.2
X30.0Y16.4
X30.2Y62.2
X30.5Y68.6
X31.0Y49.5
X31.4Y30.0
X32.3Y57.7
X32.3Y49.5
X33.0Y16.6
T3
X2.26Y46.8
X2.26Y44.26
X2.26Y41.72
X2.26Y39.18
X2.26Y36.64
X2.26Y34.1
X2.26Y31.56
X2.26Y29.02
X2.26Y26.48
X2.26Y23.94
X2.26Y21.4
X2.26Y18.86
X4.8Y46.8
X4.8Y44.26
X4.8Y41.72
X4.8Y39.18
X4.8Y36.64
X4.8Y34.1
X4.8Y31.56
X4.8Y29.02
X4.8Y26.48
X4.8Y23.94
X4.8Y21.4
X4.8Y18.86
X9.86Y48.64
X9.86Y46.1
X12.4Y48.64
X12.4Y46.1
X13.78Y7.3
X14.94Y48.64
X14.94Y46.1
X16.32Y7.3
X17.48Y48.64
X17.48Y46.1
X18.86Y7.3
X20.02Y48.64
X20.02Y46.1
X21.4Y7.3
X22.56Y48.64
X22.56Y46.1
X25.1Y48.64
X25.1Y46.1
X25.2Y67.96
X25.2Y65.42
X25.2Y62.88
X25.2Y60.34
X25.2Y57.8
X30.46Y46.84
X30.46Y44.3
X30.46Y41.76
X30.46Y39.22
X30.46Y36.68
X30.46Y34.14
X30.46Y31.6
X30.46Y29.06
X30.46Y26.52
X30.46Y23.98
X30.46Y21.44
X30.46Y18.9
X33.0Y46.84
X33.0Y44.3
X33.0Y41.76
X33.0Y39.22
X33.0Y36.68
X33.0Y34.14
X33.0Y31.6
X33.0Y29.06
X33.0Y26.52
X33.0Y23.98
X33.0Y21.44
X33.0Y18.9
T4
X3.7Y75.3
X3.7Y3.7
X31.3Y75.3
X31.3Y3.7
T2
G00X12.38Y74.955
M15
G01X12.38Y75.755
M16
G05
G00X12.38Y70.625
M15
G01X12.38Y71.725
M16
G05
G00X21.02Y74.955
M15
G01X21.02Y75.755
M16
G05
G00X21.02Y70.625
M15
G01X21.02Y71.725
M16
G05
M30
