%TF.GenerationSoftware,KiCad,Pcbnew,8.0.3*%
%TF.CreationDate,2024-07-17T15:49:10+08:00*%
%TF.ProjectId,STM32G431C8T6,53544d33-3247-4343-9331-433854362e6b,rev?*%
%TF.SameCoordinates,PXb5c5340PY81b3200*%
%TF.FileFunction,Soldermask,Top*%
%TF.FilePolarity,Negative*%
%FSLAX45Y45*%
G04 Gerber Fmt 4.5, Leading zero omitted, Abs format (unit mm)*
G04 Created by KiCad (PCBNEW 8.0.3) date 2024-07-17 15:49:10*
%MOMM*%
%LPD*%
G01*
G04 APERTURE LIST*
G04 Aperture macros list*
%AMRoundRect*
0 Rectangle with rounded corners*
0 $1 Rounding radius*
0 $2 $3 $4 $5 $6 $7 $8 $9 X,Y pos of 4 corners*
0 Add a 4 corners polygon primitive as box body*
4,1,4,$2,$3,$4,$5,$6,$7,$8,$9,$2,$3,0*
0 Add four circle primitives for the rounded corners*
1,1,$1+$1,$2,$3*
1,1,$1+$1,$4,$5*
1,1,$1+$1,$6,$7*
1,1,$1+$1,$8,$9*
0 Add four rect primitives between the rounded corners*
20,1,$1+$1,$2,$3,$4,$5,0*
20,1,$1+$1,$4,$5,$6,$7,0*
20,1,$1+$1,$6,$7,$8,$9,0*
20,1,$1+$1,$8,$9,$2,$3,0*%
G04 Aperture macros list end*
%ADD10R,1.800000X2.100000*%
%ADD11RoundRect,0.237500X0.250000X0.237500X-0.250000X0.237500X-0.250000X-0.237500X0.250000X-0.237500X0*%
%ADD12RoundRect,0.250000X0.650000X-1.500000X0.650000X1.500000X-0.650000X1.500000X-0.650000X-1.500000X0*%
%ADD13RoundRect,0.237500X-0.300000X-0.237500X0.300000X-0.237500X0.300000X0.237500X-0.300000X0.237500X0*%
%ADD14R,1.250000X1.000000*%
%ADD15C,0.650000*%
%ADD16RoundRect,0.150000X0.150000X0.425000X-0.150000X0.425000X-0.150000X-0.425000X0.150000X-0.425000X0*%
%ADD17RoundRect,0.075000X0.075000X0.500000X-0.075000X0.500000X-0.075000X-0.500000X0.075000X-0.500000X0*%
%ADD18O,1.000000X2.100000*%
%ADD19O,1.000000X1.800000*%
%ADD20RoundRect,0.237500X0.237500X-0.300000X0.237500X0.300000X-0.237500X0.300000X-0.237500X-0.300000X0*%
%ADD21RoundRect,0.237500X0.300000X0.237500X-0.300000X0.237500X-0.300000X-0.237500X0.300000X-0.237500X0*%
%ADD22C,6.400000*%
%ADD23RoundRect,0.250000X-0.650000X1.500000X-0.650000X-1.500000X0.650000X-1.500000X0.650000X1.500000X0*%
%ADD24RoundRect,0.237500X-0.237500X0.250000X-0.237500X-0.250000X0.237500X-0.250000X0.237500X0.250000X0*%
%ADD25R,1.700000X1.700000*%
%ADD26O,1.700000X1.700000*%
%ADD27RoundRect,0.237500X-0.250000X-0.237500X0.250000X-0.237500X0.250000X0.237500X-0.250000X0.237500X0*%
%ADD28RoundRect,0.375000X0.625000X0.375000X-0.625000X0.375000X-0.625000X-0.375000X0.625000X-0.375000X0*%
%ADD29RoundRect,0.500000X0.500000X1.400000X-0.500000X1.400000X-0.500000X-1.400000X0.500000X-1.400000X0*%
%ADD30RoundRect,0.075000X0.662500X0.075000X-0.662500X0.075000X-0.662500X-0.075000X0.662500X-0.075000X0*%
%ADD31RoundRect,0.075000X0.075000X0.662500X-0.075000X0.662500X-0.075000X-0.662500X0.075000X-0.662500X0*%
%ADD32RoundRect,0.237500X-0.237500X0.287500X-0.237500X-0.287500X0.237500X-0.287500X0.237500X0.287500X0*%
%ADD33RoundRect,0.237500X0.237500X-0.250000X0.237500X0.250000X-0.237500X0.250000X-0.237500X-0.250000X0*%
%ADD34RoundRect,0.237500X-0.287500X-0.237500X0.287500X-0.237500X0.287500X0.237500X-0.287500X0.237500X0*%
%ADD35R,2.100000X1.800000*%
%ADD36RoundRect,0.375000X-0.625000X-0.375000X0.625000X-0.375000X0.625000X0.375000X-0.625000X0.375000X0*%
%ADD37RoundRect,0.500000X-0.500000X-1.400000X0.500000X-1.400000X0.500000X1.400000X-0.500000X1.400000X0*%
%ADD38RoundRect,0.200000X-0.750000X-0.200000X0.750000X-0.200000X0.750000X0.200000X-0.750000X0.200000X0*%
%ADD39RoundRect,0.237500X0.237500X-0.287500X0.237500X0.287500X-0.237500X0.287500X-0.237500X-0.287500X0*%
%ADD40RoundRect,0.237500X-0.237500X0.300000X-0.237500X-0.300000X0.237500X-0.300000X0.237500X0.300000X0*%
%ADD41RoundRect,0.200000X-0.200000X0.750000X-0.200000X-0.750000X0.200000X-0.750000X0.200000X0.750000X0*%
%ADD42RoundRect,0.075000X0.075000X-0.662500X0.075000X0.662500X-0.075000X0.662500X-0.075000X-0.662500X0*%
%ADD43RoundRect,0.075000X0.662500X-0.075000X0.662500X0.075000X-0.662500X0.075000X-0.662500X-0.075000X0*%
%ADD44RoundRect,0.250000X0.425000X1.600000X-0.425000X1.600000X-0.425000X-1.600000X0.425000X-1.600000X0*%
%ADD45RoundRect,0.250000X1.600000X-0.425000X1.600000X0.425000X-1.600000X0.425000X-1.600000X-0.425000X0*%
%ADD46RoundRect,0.250000X-1.600000X0.425000X-1.600000X-0.425000X1.600000X-0.425000X1.600000X0.425000X0*%
G04 APERTURE END LIST*
D10*
%TO.C,Y2*%
X2365000Y2998750D03*
X2365000Y2708750D03*
X2595000Y2708750D03*
X2595000Y2998750D03*
%TD*%
D11*
%TO.C,R15*%
X3311250Y5220000D03*
X3128750Y5220000D03*
%TD*%
D12*
%TO.C,D11*%
X970000Y3720000D03*
X970000Y4220000D03*
%TD*%
D13*
%TO.C,C20*%
X863750Y760000D03*
X1036250Y760000D03*
%TD*%
D14*
%TO.C,SW1*%
X1092500Y3440000D03*
X1867500Y3440000D03*
%TD*%
D15*
%TO.C,J1*%
X1959000Y7167500D03*
X1381000Y7167500D03*
D16*
X1990000Y7060000D03*
X1910000Y7060000D03*
D17*
X1795000Y7060000D03*
X1695000Y7060000D03*
X1645000Y7060000D03*
X1545000Y7060000D03*
D16*
X1430000Y7060000D03*
X1350000Y7060000D03*
X1350000Y7060000D03*
X1430000Y7060000D03*
D17*
X1495000Y7060000D03*
X1595000Y7060000D03*
X1745000Y7060000D03*
X1845000Y7060000D03*
D16*
X1910000Y7060000D03*
X1990000Y7060000D03*
D18*
X2102000Y7117500D03*
D19*
X2102000Y7535500D03*
D18*
X1238000Y7117500D03*
D19*
X1238000Y7535500D03*
%TD*%
D20*
%TO.C,C23*%
X2790000Y2982500D03*
X2790000Y3155000D03*
%TD*%
D21*
%TO.C,C16*%
X2436250Y3620000D03*
X2263750Y3620000D03*
%TD*%
D22*
%TO.C,*%
X370000Y7530000D03*
%TD*%
D23*
%TO.C,D2*%
X2880000Y5570000D03*
X2880000Y5070000D03*
%TD*%
D21*
%TO.C,C24*%
X2776250Y4350000D03*
X2603750Y4350000D03*
%TD*%
D11*
%TO.C,R14*%
X3320000Y6450000D03*
X3137500Y6450000D03*
%TD*%
D24*
%TO.C,R3*%
X900000Y7201250D03*
X900000Y7018750D03*
%TD*%
D25*
%TO.C,J8*%
X1378000Y730000D03*
D26*
X1632000Y730000D03*
X1886000Y730000D03*
X2140000Y730000D03*
%TD*%
D27*
%TO.C,R11*%
X1368750Y5350000D03*
X1551250Y5350000D03*
%TD*%
D28*
%TO.C,U3*%
X2385000Y3830000D03*
X2385000Y4060000D03*
D29*
X1755000Y4060000D03*
D28*
X2385000Y4290000D03*
%TD*%
D30*
%TO.C,U4*%
X1871250Y2360000D03*
X1871250Y2410000D03*
X1871250Y2460000D03*
X1871250Y2510000D03*
X1871250Y2560000D03*
X1871250Y2610000D03*
X1871250Y2660000D03*
X1871250Y2710000D03*
X1871250Y2760000D03*
X1871250Y2810000D03*
X1871250Y2860000D03*
X1871250Y2910000D03*
D31*
X1730000Y3051250D03*
X1680000Y3051250D03*
X1630000Y3051250D03*
X1580000Y3051250D03*
X1530000Y3051250D03*
X1480000Y3051250D03*
X1430000Y3051250D03*
X1380000Y3051250D03*
X1330000Y3051250D03*
X1280000Y3051250D03*
X1230000Y3051250D03*
X1180000Y3051250D03*
D30*
X1038750Y2910000D03*
X1038750Y2860000D03*
X1038750Y2810000D03*
X1038750Y2760000D03*
X1038750Y2710000D03*
X1038750Y2660000D03*
X1038750Y2610000D03*
X1038750Y2560000D03*
X1038750Y2510000D03*
X1038750Y2460000D03*
X1038750Y2410000D03*
X1038750Y2360000D03*
D31*
X1180000Y2218750D03*
X1230000Y2218750D03*
X1280000Y2218750D03*
X1330000Y2218750D03*
X1380000Y2218750D03*
X1430000Y2218750D03*
X1480000Y2218750D03*
X1530000Y2218750D03*
X1580000Y2218750D03*
X1630000Y2218750D03*
X1680000Y2218750D03*
X1730000Y2218750D03*
%TD*%
D21*
%TO.C,C11*%
X1546250Y4050000D03*
X1373750Y4050000D03*
%TD*%
D24*
%TO.C,R7*%
X750000Y7201250D03*
X750000Y7018750D03*
%TD*%
D27*
%TO.C,R23*%
X2048750Y1500000D03*
X2231250Y1500000D03*
%TD*%
D32*
%TO.C,D10*%
X740000Y3226250D03*
X740000Y3051250D03*
%TD*%
D22*
%TO.C,*%
X3130000Y7530000D03*
%TD*%
D33*
%TO.C,R27*%
X2790000Y3308750D03*
X2790000Y3491250D03*
%TD*%
D34*
%TO.C,D6*%
X3132500Y5070000D03*
X3307500Y5070000D03*
%TD*%
D27*
%TO.C,R18*%
X627500Y6510000D03*
X810000Y6510000D03*
%TD*%
D21*
%TO.C,C10*%
X1546250Y4200000D03*
X1373750Y4200000D03*
%TD*%
D13*
%TO.C,C12*%
X2453750Y7200000D03*
X2626250Y7200000D03*
%TD*%
D35*
%TO.C,Y1*%
X2145000Y5395000D03*
X1855000Y5395000D03*
X1855000Y5165000D03*
X2145000Y5165000D03*
%TD*%
D14*
%TO.C,SW3*%
X1925000Y1790000D03*
X2700000Y1790000D03*
%TD*%
D27*
%TO.C,R17*%
X1368750Y4350000D03*
X1551250Y4350000D03*
%TD*%
D21*
%TO.C,C6*%
X1550000Y3900000D03*
X1377500Y3900000D03*
%TD*%
D27*
%TO.C,R25*%
X2428750Y910000D03*
X2611250Y910000D03*
%TD*%
D36*
%TO.C,U2*%
X482500Y6040000D03*
X482500Y5810000D03*
D37*
X1112500Y5810000D03*
D36*
X482500Y5580000D03*
%TD*%
D20*
%TO.C,C19*%
X1900000Y1353750D03*
X1900000Y1526250D03*
%TD*%
D34*
%TO.C,D5*%
X3142500Y6600000D03*
X3317500Y6600000D03*
%TD*%
D38*
%TO.C,Q1*%
X1010000Y6855000D03*
X1010000Y6665000D03*
X1310000Y6760000D03*
%TD*%
D27*
%TO.C,R9*%
X2078750Y6840000D03*
X2261250Y6840000D03*
%TD*%
D39*
%TO.C,D8*%
X1220000Y4172500D03*
X1220000Y4347500D03*
%TD*%
D27*
%TO.C,R6*%
X958750Y6510000D03*
X1141250Y6510000D03*
%TD*%
D14*
%TO.C,SW4*%
X1647500Y1200000D03*
X872500Y1200000D03*
%TD*%
D20*
%TO.C,C2*%
X2360000Y5263750D03*
X2360000Y5436250D03*
%TD*%
D24*
%TO.C,R2*%
X1590000Y6872500D03*
X1590000Y6690000D03*
%TD*%
D33*
%TO.C,R19*%
X2510000Y5258750D03*
X2510000Y5441250D03*
%TD*%
D11*
%TO.C,R24*%
X1041250Y910000D03*
X858750Y910000D03*
%TD*%
D25*
%TO.C,J10*%
X3046000Y4684000D03*
D26*
X3300000Y4684000D03*
X3046000Y4430000D03*
X3300000Y4430000D03*
X3046000Y4176000D03*
X3300000Y4176000D03*
X3046000Y3922000D03*
X3300000Y3922000D03*
X3046000Y3668000D03*
X3300000Y3668000D03*
X3046000Y3414000D03*
X3300000Y3414000D03*
X3046000Y3160000D03*
X3300000Y3160000D03*
X3046000Y2906000D03*
X3300000Y2906000D03*
X3046000Y2652000D03*
X3300000Y2652000D03*
X3046000Y2398000D03*
X3300000Y2398000D03*
X3046000Y2144000D03*
X3300000Y2144000D03*
X3046000Y1890000D03*
X3300000Y1890000D03*
%TD*%
D40*
%TO.C,C14*%
X280000Y5756250D03*
X280000Y5583750D03*
%TD*%
D22*
%TO.C,*%
X3130000Y370000D03*
%TD*%
D13*
%TO.C,C1*%
X1463750Y5120000D03*
X1636250Y5120000D03*
%TD*%
%TO.C,C3*%
X3143750Y6750000D03*
X3316250Y6750000D03*
%TD*%
D41*
%TO.C,U5*%
X2785000Y3990000D03*
X2595000Y3990000D03*
X2690000Y3690000D03*
%TD*%
D34*
%TO.C,D1*%
X1895000Y6690000D03*
X2070000Y6690000D03*
%TD*%
D40*
%TO.C,C9*%
X1170000Y5366250D03*
X1170000Y5193750D03*
%TD*%
D42*
%TO.C,U1*%
X1480000Y5680000D03*
X1530000Y5680000D03*
X1580000Y5680000D03*
X1630000Y5680000D03*
X1680000Y5680000D03*
X1730000Y5680000D03*
X1780000Y5680000D03*
X1830000Y5680000D03*
X1880000Y5680000D03*
X1930000Y5680000D03*
X1980000Y5680000D03*
X2030000Y5680000D03*
D43*
X2171250Y5821250D03*
X2171250Y5871250D03*
X2171250Y5921250D03*
X2171250Y5971250D03*
X2171250Y6021250D03*
X2171250Y6071250D03*
X2171250Y6121250D03*
X2171250Y6171250D03*
X2171250Y6221250D03*
X2171250Y6271250D03*
X2171250Y6321250D03*
X2171250Y6371250D03*
D42*
X2030000Y6512500D03*
X1980000Y6512500D03*
X1930000Y6512500D03*
X1880000Y6512500D03*
X1830000Y6512500D03*
X1780000Y6512500D03*
X1730000Y6512500D03*
X1680000Y6512500D03*
X1630000Y6512500D03*
X1580000Y6512500D03*
X1530000Y6512500D03*
X1480000Y6512500D03*
D43*
X1338750Y6371250D03*
X1338750Y6321250D03*
X1338750Y6271250D03*
X1338750Y6221250D03*
X1338750Y6171250D03*
X1338750Y6121250D03*
X1338750Y6071250D03*
X1338750Y6021250D03*
X1338750Y5971250D03*
X1338750Y5921250D03*
X1338750Y5871250D03*
X1338750Y5821250D03*
%TD*%
D23*
%TO.C,D9*%
X3230000Y6020000D03*
X3230000Y5520000D03*
%TD*%
D11*
%TO.C,R4*%
X810000Y6810000D03*
X627500Y6810000D03*
%TD*%
D24*
%TO.C,R8*%
X1060000Y7201250D03*
X1060000Y7018750D03*
%TD*%
D40*
%TO.C,C8*%
X720000Y5366250D03*
X720000Y5193750D03*
%TD*%
D12*
%TO.C,D3*%
X2880000Y5980000D03*
X2880000Y6480000D03*
%TD*%
D22*
%TO.C,*%
X370000Y370000D03*
%TD*%
D27*
%TO.C,R5*%
X628750Y6660000D03*
X811250Y6660000D03*
%TD*%
D24*
%TO.C,R1*%
X1740000Y6872500D03*
X1740000Y6690000D03*
%TD*%
D13*
%TO.C,C15*%
X2603750Y4190000D03*
X2776250Y4190000D03*
%TD*%
D21*
%TO.C,C7*%
X1546250Y3750000D03*
X1373750Y3750000D03*
%TD*%
D40*
%TO.C,C17*%
X570000Y5366250D03*
X570000Y5193750D03*
%TD*%
%TO.C,C5*%
X870000Y5366250D03*
X870000Y5193750D03*
%TD*%
D25*
%TO.C,J2*%
X2510000Y4864000D03*
D26*
X2510000Y4610000D03*
X2256000Y4864000D03*
X2256000Y4610000D03*
X2002000Y4864000D03*
X2002000Y4610000D03*
X1748000Y4864000D03*
X1748000Y4610000D03*
X1494000Y4864000D03*
X1494000Y4610000D03*
X1240000Y4864000D03*
X1240000Y4610000D03*
X986000Y4864000D03*
X986000Y4610000D03*
%TD*%
D27*
%TO.C,R21*%
X628750Y6360000D03*
X811250Y6360000D03*
%TD*%
D14*
%TO.C,SW5*%
X1922500Y1200000D03*
X2697500Y1200000D03*
%TD*%
D25*
%TO.C,J3*%
X2520000Y6796000D03*
D26*
X2520000Y6542000D03*
X2520000Y6288000D03*
X2520000Y6034000D03*
X2520000Y5780000D03*
%TD*%
D24*
%TO.C,R26*%
X740000Y2890000D03*
X740000Y2707500D03*
%TD*%
D14*
%TO.C,SW2*%
X1650000Y1790000D03*
X875000Y1790000D03*
%TD*%
D11*
%TO.C,R22*%
X1511250Y1500000D03*
X1328750Y1500000D03*
%TD*%
D24*
%TO.C,R20*%
X930000Y3441250D03*
X930000Y3258750D03*
%TD*%
D34*
%TO.C,FB1*%
X3142500Y6300000D03*
X3317500Y6300000D03*
%TD*%
D21*
%TO.C,C21*%
X2606250Y760000D03*
X2433750Y760000D03*
%TD*%
D40*
%TO.C,C22*%
X2790000Y2825000D03*
X2790000Y2652500D03*
%TD*%
%TO.C,C4*%
X1020000Y5366250D03*
X1020000Y5193750D03*
%TD*%
D20*
%TO.C,C18*%
X1670000Y1363750D03*
X1670000Y1536250D03*
%TD*%
D25*
%TO.C,J9*%
X226000Y4680000D03*
D26*
X480000Y4680000D03*
X226000Y4426000D03*
X480000Y4426000D03*
X226000Y4172000D03*
X480000Y4172000D03*
X226000Y3918000D03*
X480000Y3918000D03*
X226000Y3664000D03*
X480000Y3664000D03*
X226000Y3410000D03*
X480000Y3410000D03*
X226000Y3156000D03*
X480000Y3156000D03*
X226000Y2902000D03*
X480000Y2902000D03*
X226000Y2648000D03*
X480000Y2648000D03*
X226000Y2394000D03*
X480000Y2394000D03*
X226000Y2140000D03*
X480000Y2140000D03*
X226000Y1886000D03*
X480000Y1886000D03*
%TD*%
D40*
%TO.C,C13*%
X1220000Y3906250D03*
X1220000Y3733750D03*
%TD*%
D11*
%TO.C,R12*%
X2631250Y7050000D03*
X2448750Y7050000D03*
%TD*%
D39*
%TO.C,FB2*%
X2780000Y6922500D03*
X2780000Y7097500D03*
%TD*%
D11*
%TO.C,R10*%
X1551250Y5500000D03*
X1368750Y5500000D03*
%TD*%
D44*
%TO.C,J5*%
X2652500Y281250D03*
X2087500Y281250D03*
%TD*%
D45*
%TO.C,J6*%
X280000Y860000D03*
X280000Y1425000D03*
%TD*%
D46*
%TO.C,J4*%
X3238750Y1412500D03*
X3238750Y847500D03*
%TD*%
D44*
%TO.C,J7*%
X1422500Y281250D03*
X857500Y281250D03*
%TD*%
M02*
